<svg xmlns="http://www.w3.org/2000/svg" fill="none" viewBox="0 0 40 38"><path fill="currentColor" d="M29.995 3.862H5.001V.5h24.994a9.965 9.965 0 0 1 7.067 2.959 10.149 10.149 0 0 1 2.932 7.131h-3.328a6.766 6.766 0 0 0-1.956-4.757 6.643 6.643 0 0 0-4.715-1.971Zm0 3.364H5.001v3.364h28.334a3.386 3.386 0 0 0-.98-2.379 3.324 3.324 0 0 0-2.36-.985Zm3.334 6.729H11.666a11.587 11.587 0 0 0-4.47.902 11.672 11.672 0 0 0-3.787 2.56 11.792 11.792 0 0 0-2.527 3.829A11.877 11.877 0 0 0 0 25.759c.02 6.508 5.333 11.73 11.78 11.73h19.888a8.266 8.266 0 0 0 3.189-.64 8.327 8.327 0 0 0 2.703-1.824 8.413 8.413 0 0 0 1.806-2.729A8.476 8.476 0 0 0 40 29.078V27.41h-3.334v1.679a5.083 5.083 0 0 1-1.463 3.568 4.96 4.96 0 0 1-3.535 1.478H11.666a8.27 8.27 0 0 1-3.23-.615 8.33 8.33 0 0 1-2.744-1.829 8.416 8.416 0 0 1-1.83-2.757 8.478 8.478 0 0 1 .036-6.505 8.415 8.415 0 0 1 1.86-2.736 8.327 8.327 0 0 1 2.764-1.798 8.268 8.268 0 0 1 3.238-.579H40l-6.665-6.726-.006 3.365Zm6.665 6.726H11.666a4.962 4.962 0 0 0-3.6 1.46 5.049 5.049 0 0 0-1.104 1.658 5.087 5.087 0 0 0 1.15 5.56c.48.467 1.047.832 1.669 1.075a4.961 4.961 0 0 0 1.95.337h19.937a1.66 1.66 0 0 0 1.178-.492 1.69 1.69 0 0 0 .489-1.19v-1.68H11.666a1.662 1.662 0 0 1-1.166-.484 1.692 1.692 0 0 1-.498-1.169c0-.455.18-.892.498-1.214a1.693 1.693 0 0 1 1.203-.503h21.629v3.37l6.662-6.728Z"/></svg>
