<svg xmlns="http://www.w3.org/2000/svg" fill="none" viewBox="0 0 432 396"><path fill="#617891" fill-opacity=".15" d="M323.946 35.989H54.012V0h269.934a108.098 108.098 0 0 1 76.327 31.677 108.173 108.173 0 0 1 31.666 76.351h-35.947a72.113 72.113 0 0 0-21.121-50.932 72.067 72.067 0 0 0-50.925-21.107Zm0 36.02H54.012v36.019h306.003a36.084 36.084 0 0 0-10.586-25.474 36.06 36.06 0 0 0-25.483-10.546Zm36.008 72.038H125.996a126.093 126.093 0 0 0-89.176 37.071A126.197 126.197 0 0 0 0 270.422C.215 340.102 57.594 396 127.221 396h214.791a89.958 89.958 0 0 0 63.642-26.377A90.034 90.034 0 0 0 432 305.951v-17.856h-36.008v17.979a54.014 54.014 0 0 1-15.799 38.202 53.985 53.985 0 0 1-38.181 15.827H125.996a90.01 90.01 0 0 1-64.527-26.167 90.049 90.049 0 0 1-26.566-64.381 90.074 90.074 0 0 1 27.287-64.078 90.007 90.007 0 0 1 64.817-25.441H432l-71.985-72.008-.061 36.019Zm71.985 72.009H125.996a53.994 53.994 0 0 0-38.887 15.629 54.039 54.039 0 0 0 18.522 88.785 54.003 54.003 0 0 0 21.07 3.614h215.311a18.002 18.002 0 0 0 18.003-18.01v-17.979H125.996a18.035 18.035 0 0 1-17.973-17.704c0-4.874 1.936-9.548 5.381-12.995a18.368 18.368 0 0 1 12.99-5.382h233.591v36.081l71.954-72.039Z"/></svg>
