<svg xmlns="http://www.w3.org/2000/svg" fill="none" viewBox="0 0 160 26"><path fill="currentColor" d="M16.39 1.808H2.733V0h13.659a5.493 5.493 0 0 1 3.86 1.59 5.403 5.403 0 0 1 1.601 3.83h-1.826a3.613 3.613 0 0 0-1.07-2.547 3.673 3.673 0 0 0-2.565-1.065Zm0 1.806H2.733V5.42h15.476c0-.479-.191-.937-.532-1.276a1.828 1.828 0 0 0-1.285-.53Zm1.821 3.603H6.373a6.418 6.418 0 0 0-2.436.493 6.376 6.376 0 0 0-2.061 1.38 6.317 6.317 0 0 0-1.372 2.058A6.277 6.277 0 0 0 1.92 18.03a6.378 6.378 0 0 0 2.074 1.36 6.419 6.419 0 0 0 2.441.47H17.3a4.582 4.582 0 0 0 3.22-1.322 4.48 4.48 0 0 0 1.333-3.194v-.893h-1.826v.902a2.687 2.687 0 0 1-.8 1.917 2.732 2.732 0 0 1-1.932.793H6.374a4.571 4.571 0 0 1-3.213-1.34 4.497 4.497 0 0 1-1.315-3.201 4.498 4.498 0 0 1 1.351-3.186 4.572 4.572 0 0 1 3.227-1.305h15.428l-3.64-3.611v1.797Zm3.641 3.628H6.376a2.752 2.752 0 0 0-1.926.807 2.708 2.708 0 0 0-.788 1.921 2.691 2.691 0 0 0 .813 1.911 2.734 2.734 0 0 0 1.938.781h10.89a.915.915 0 0 0 .644-.265.9.9 0 0 0 .267-.639v-.91H6.374a.916.916 0 0 1-.638-.26.9.9 0 0 1-.272-.627.915.915 0 0 1 .576-.85.934.934 0 0 1 .356-.068h11.818v1.805l3.638-3.606ZM34.056.008h4.896l6.781 19.869h-3.435l-2.06-6.045H32.77l-2.051 6.036h-3.445L34.056.008Zm5.24 11.005-2.778-8.175-2.775 8.175h5.552Zm7.67-5.336h3.292v3.237c.484-1.903 1.485-3.237 3.174-3.237h2.634v2.838h-2.347c-2.46 0-3.461 1.563-3.461 5.252v6.101h-3.292V5.677Zm10.13 0h3.292v2.442c.83-1.73 2.49-2.894 4.783-2.894 2.032 0 3.548 1.021 4.091 3.262.802-1.928 2.55-3.262 5.009-3.262 2.575 0 4.322 1.615 4.322 5.302v9.339h-3.292v-8.742c0-2.47-1.002-3.07-2.431-3.07-1.92 0-3.377 1.396-3.377 4.91v6.896h-3.292v-8.736c0-2.47-1.002-3.07-2.431-3.07-1.92 0-3.377 1.396-3.377 4.91v6.896h-3.292l-.006-14.183Zm39.646 9.849V8.515h-3.095V5.677h3.095V1.108h3.29v4.569h4.294v2.838h-4.294v6.813c0 1.135.572 1.702 1.716 1.702h2.578v2.838h-3.006c-2.948 0-4.578-1.417-4.578-4.342Zm9.005-9.85h3.292v3.238c.487-1.903 1.488-3.237 3.177-3.237h2.636v2.838h-2.347c-2.459 0-3.461 1.563-3.461 5.252v6.101h-3.292l-.005-14.191Zm9.226 7.123c0-4.744 3.433-7.577 7.24-7.577 3.807 0 7.212 2.833 7.212 7.577 0 4.745-3.405 7.535-7.212 7.535s-7.24-2.821-7.24-7.535Zm7.24 4.683c2.575 0 3.863-1.758 3.863-4.683s-1.288-4.744-3.863-4.744-3.863 1.786-3.863 4.744c0 2.958 1.286 4.686 3.863 4.686v-.003Zm15.833-9.427c-1.888 0-3.548 1.395-3.548 4.909v6.896h-3.292V5.677h3.292v2.528c.887-1.789 2.603-2.98 4.95-2.98 2.577 0 4.437 1.615 4.437 5.302v9.339h-3.292v-8.742c0-2.467-1.117-3.07-2.547-3.07Zm8.048 13.424 3.576-.28c.2.994 1.202 1.954 3.121 1.954 1.801 0 3.92-.625 3.92-3.86v-1.922c-.777 1.705-2.291 2.963-4.694 2.963-4.178 0-6.353-3.435-6.353-7.535s2.175-7.535 6.353-7.535c2.403 0 3.92 1.247 4.694 2.95V5.702H160V18.76c0 4.938-2.431 7.257-7.209 7.257-4.581-.017-6.705-2.911-6.705-4.53l.008-.008Zm6.781-4.002c1.917 0 3.836-1.396 3.836-4.711 0-3.316-1.919-4.711-3.836-4.711-1.916 0-3.835 1.395-3.835 4.719 0 3.324 1.947 4.711 3.835 4.711v-.008ZM84.159 9.595c0-1.05 1.002-1.532 2.634-1.532s2.61.458 2.754 1.532h3.281c0-3.095-3.002-4.37-6.035-4.37-3.265 0-6.01 1.646-6.01 4.37 0 5.961 9.27 2.582 9.27 5.99 0 1.219-1.144 1.9-2.976 1.9-2.251 0-3.523-.69-3.658-2.355H80.18c0 3.575 3.12 5.193 6.897 5.193 3.436 0 6.353-1.817 6.353-4.744 0-6.043-9.271-3.059-9.271-5.984Z"/></svg>
